<svg width="101" height="56" viewBox="0 0 101 56" fill="none" xmlns="http://www.w3.org/2000/svg">
<path d="M9.70551 50.9257C9.70551 48.9975 8.25225 48.1212 5.81394 48.1212H2.6613V53.8047C3.27662 53.9047 4.04016 53.9798 5.17346 53.9798C8.37531 53.9798 9.70551 53.1035 9.70551 50.9257ZM2.6613 41.1357V46.2937H5.59187C8.07941 46.2937 9.0158 45.2673 9.0158 43.5392C9.0158 41.9118 7.73483 41.0106 5.32113 41.0106C4.40991 41.0106 3.54791 41.0356 2.6613 41.1357ZM11.6756 50.8256C11.6756 53.9798 9.43421 55.7829 5.29652 55.7829C3.12894 55.7829 1.7747 55.6578 0.666016 55.4571V39.6834C1.7747 39.4582 3.22739 39.2581 5.19807 39.2581C9.08964 39.2581 10.9367 40.7354 10.9367 43.5392C10.9367 45.2173 10.1731 46.3187 8.96657 46.9692C10.666 47.5452 11.6756 48.7473 11.6756 50.8256ZM18.1291 54.0304C19.3111 54.0304 20.3454 53.8297 21.1089 53.5545V50.6749C20.1731 50.2246 19.065 50.0239 17.8824 50.0239C16.2815 50.0239 15.1488 50.5498 15.1488 51.902C15.1488 53.1786 16.1338 54.0304 18.1291 54.0304ZM23.055 47.9461V54.6809C21.9715 55.2819 19.927 55.8329 18.1045 55.8329C14.5575 55.8329 13.1043 54.1805 13.1043 52.0021C13.1043 49.5985 15.1734 48.2463 17.8824 48.2463C19.1634 48.2463 20.2715 48.4965 21.1089 48.8474V47.9461C21.1089 46.1686 19.9762 45.2173 17.9317 45.2173C16.5282 45.2173 15.3457 45.7427 14.6314 46.2937C14.0653 46.0185 13.7201 45.4925 13.6217 44.9415C14.3606 44.1903 16.06 43.3391 18.0307 43.3391C20.8136 43.3391 23.055 44.6412 23.055 47.9461ZM36.0839 48.1463V55.4821C35.764 55.5572 35.3948 55.5827 35.0743 55.5827C34.7543 55.5827 34.4343 55.5572 34.0892 55.4821V48.8474C34.0892 46.2687 32.9313 45.2173 30.6904 45.2173C29.3849 45.2173 28.227 45.6426 27.5624 46.0435V55.4821C27.2419 55.5572 26.8727 55.5827 26.5527 55.5827C26.2322 55.5827 25.9123 55.5572 25.5671 55.4821V45.1416C26.7004 44.1903 28.6952 43.3391 30.8873 43.3391C34.5076 43.3391 36.0839 45.5926 36.0839 48.1463ZM38.0054 49.5985C38.0054 45.8928 40.616 43.3391 44.0153 43.3391C45.7393 43.3391 47.1187 44.0152 47.8576 44.7163C47.6848 45.3173 47.3156 45.8428 46.7244 46.193C46.0346 45.6426 45.1973 45.1667 44.0153 45.1667C41.2565 45.1667 40.0253 47.32 40.0253 49.5985C40.0253 51.877 41.2565 53.9804 44.0153 53.9804C45.6403 53.9804 46.4531 53.2286 46.8966 52.8784C47.4387 53.1792 47.8325 53.6545 48.0294 54.2806C47.291 55.0568 45.7639 55.8329 44.0153 55.8329C40.4929 55.8329 38.0054 53.5044 38.0054 49.5985ZM58.4483 49.5735C58.4483 47.0198 56.9212 45.1917 54.4829 45.1917C52.0446 45.1917 50.5175 47.0198 50.5175 49.5735C50.5175 52.1272 52.0446 53.9298 54.4829 53.9298C56.9212 53.9298 58.4483 52.1272 58.4483 49.5735ZM48.4981 49.5735C48.4981 46.0435 51.0841 43.3141 54.5567 43.3141C58.0293 43.3141 60.4682 46.0435 60.4682 49.5735C60.4682 53.1035 57.8816 55.8079 54.409 55.8079C50.9359 55.8079 48.4981 53.1035 48.4981 49.5735ZM61.4846 53.4464C61.6434 51.7661 62.5015 50.344 63.6779 49.6008C65.0131 50.6994 67.1432 51.5722 69.5273 51.5722C71.8162 51.5722 72.7062 50.829 72.7062 49.6975C72.7062 48.6313 72.1977 48.0172 68.6054 47.0801C65.172 46.2397 62.1519 44.8823 62.12 40.7137C62.12 36.739 65.2357 34.1859 69.9406 34.1859C73.4692 34.1859 75.8219 35.3493 77.0301 36.3188C76.9345 37.8052 76.1396 39.4537 74.8363 40.2293C73.6599 39.3888 71.88 38.6132 69.6229 38.6132C67.7473 38.6132 66.7298 39.324 66.7298 40.2935C66.7298 41.3279 67.1751 41.7799 70.8312 42.6852C74.6455 43.6547 77.2522 45.3026 77.316 49.0191C77.4116 53.5107 74.3278 55.9995 69.4322 55.9995C65.3308 55.9995 62.7879 54.6098 61.4846 53.4464ZM89.9685 47.8233C89.9685 45.3026 88.6965 43.6547 86.4713 43.6547C84.2461 43.6547 82.9427 45.3026 82.9427 47.8233C82.9427 50.3116 84.2461 51.9924 86.4713 51.9924C88.6965 51.9924 89.9685 50.3116 89.9685 47.8233ZM78.206 47.8233C78.206 42.8791 81.7026 39.6152 86.5032 39.6152C91.3037 39.6152 94.7371 42.8142 94.7371 47.8233C94.7371 52.7356 91.2399 55.9995 86.4394 55.9995C81.6394 55.9995 78.206 52.8971 78.206 47.8233ZM96.2307 55.4821V34.315C96.9618 34.1859 97.7567 34.1211 98.5515 34.1211C99.3464 34.1211 100.173 34.1859 100.999 34.315V55.4821C100.268 55.6117 99.4415 55.676 98.6472 55.676C97.8523 55.676 97.0574 55.6117 96.2307 55.4821Z" fill="#46009B"/>
<mask id="mask0_6156_7466" style="mask-type:luminance" maskUnits="userSpaceOnUse" x="43" y="0" width="44" height="40">
<path d="M43.7852 0H86.8883V39.7401H43.7852V0Z" fill="white"/>
</mask>
<g mask="url(#mask0_6156_7466)">
<mask id="mask1_6156_7466" style="mask-type:luminance" maskUnits="userSpaceOnUse" x="43" y="0" width="44" height="40">
<path d="M43.793 21.9914C43.793 29.1163 47.1453 35.4451 52.3346 39.4369C52.7838 39.7849 53.516 39.6257 53.7207 39.0127C57.0792 29.6633 67.2498 24.8789 76.409 28.2947C81.219 30.1063 87.06 26.566 86.7485 20.3532C85.9032 9.06487 76.621 0.128906 65.2998 0.128906C53.4215 0.128906 43.793 9.91724 43.793 21.9914Z" fill="white"/>
</mask>
<g mask="url(#mask1_6156_7466)">
<path d="M54.6096 -18.916L26.9004 29.871L76.2428 58.8299L103.952 10.043L54.6096 -18.916Z" fill="url(#paint0_linear_6156_7466)"/>
</g>
</g>
<defs>
<linearGradient id="paint0_linear_6156_7466" x1="39.894" y1="6.99349" x2="89.6377" y2="35.2458" gradientUnits="userSpaceOnUse">
<stop stop-color="#FFDC00"/>
<stop offset="0.125" stop-color="#FFDC00"/>
<stop offset="0.140625" stop-color="#FFDC00"/>
<stop offset="0.144531" stop-color="#FFDA00"/>
<stop offset="0.148438" stop-color="#FFD800"/>
<stop offset="0.152344" stop-color="#FFD700"/>
<stop offset="0.15625" stop-color="#FFD500"/>
<stop offset="0.160156" stop-color="#FFD400"/>
<stop offset="0.164062" stop-color="#FFD200"/>
<stop offset="0.167969" stop-color="#FFD100"/>
<stop offset="0.171875" stop-color="#FFCF00"/>
<stop offset="0.175781" stop-color="#FFCE00"/>
<stop offset="0.179688" stop-color="#FFCC00"/>
<stop offset="0.183594" stop-color="#FFCB00"/>
<stop offset="0.1875" stop-color="#FFC900"/>
<stop offset="0.191406" stop-color="#FFC800"/>
<stop offset="0.195312" stop-color="#FFC600"/>
<stop offset="0.199219" stop-color="#FFC500"/>
<stop offset="0.203125" stop-color="#FFC300"/>
<stop offset="0.207031" stop-color="#FFC200"/>
<stop offset="0.210938" stop-color="#FFC000"/>
<stop offset="0.214844" stop-color="#FFBF00"/>
<stop offset="0.21875" stop-color="#FFBD00"/>
<stop offset="0.222656" stop-color="#FFBC00"/>
<stop offset="0.226562" stop-color="#FFBA00"/>
<stop offset="0.230469" stop-color="#FFB900"/>
<stop offset="0.234375" stop-color="#FFB700"/>
<stop offset="0.238281" stop-color="#FFB600"/>
<stop offset="0.242188" stop-color="#FFB400"/>
<stop offset="0.246094" stop-color="#FFB300"/>
<stop offset="0.25" stop-color="#FFB100"/>
<stop offset="0.253906" stop-color="#FFB000"/>
<stop offset="0.257812" stop-color="#FFAE00"/>
<stop offset="0.261719" stop-color="#FFAD00"/>
<stop offset="0.265625" stop-color="#FFAB00"/>
<stop offset="0.269531" stop-color="#FFAA00"/>
<stop offset="0.273438" stop-color="#FFA800"/>
<stop offset="0.277344" stop-color="#FFA700"/>
<stop offset="0.28125" stop-color="#FFA500"/>
<stop offset="0.285156" stop-color="#FFA400"/>
<stop offset="0.289062" stop-color="#FFA300"/>
<stop offset="0.292969" stop-color="#FFA100"/>
<stop offset="0.296875" stop-color="#FFA000"/>
<stop offset="0.300781" stop-color="#FF9E00"/>
<stop offset="0.304688" stop-color="#FF9D00"/>
<stop offset="0.308594" stop-color="#FF9B00"/>
<stop offset="0.3125" stop-color="#FF9A00"/>
<stop offset="0.316406" stop-color="#FF9800"/>
<stop offset="0.320312" stop-color="#FF9700"/>
<stop offset="0.324219" stop-color="#FF9500"/>
<stop offset="0.328125" stop-color="#FF9400"/>
<stop offset="0.332031" stop-color="#FF9200"/>
<stop offset="0.335938" stop-color="#FF9100"/>
<stop offset="0.339844" stop-color="#FF8F00"/>
<stop offset="0.34375" stop-color="#FF8E00"/>
<stop offset="0.347656" stop-color="#FF8C00"/>
<stop offset="0.351562" stop-color="#FF8B00"/>
<stop offset="0.355469" stop-color="#FF8900"/>
<stop offset="0.359375" stop-color="#FF8800"/>
<stop offset="0.363281" stop-color="#FF8600"/>
<stop offset="0.367188" stop-color="#FF8500"/>
<stop offset="0.371094" stop-color="#FF8300"/>
<stop offset="0.375" stop-color="#FF8200"/>
<stop offset="0.378906" stop-color="#FF8000"/>
<stop offset="0.382813" stop-color="#FF7F00"/>
<stop offset="0.386719" stop-color="#FE7D01"/>
<stop offset="0.390625" stop-color="#FE7B01"/>
<stop offset="0.394531" stop-color="#FD7A03"/>
<stop offset="0.398438" stop-color="#FB7804"/>
<stop offset="0.402344" stop-color="#FA7606"/>
<stop offset="0.40625" stop-color="#F97407"/>
<stop offset="0.410156" stop-color="#F77209"/>
<stop offset="0.414062" stop-color="#F6700B"/>
<stop offset="0.417969" stop-color="#F56E0C"/>
<stop offset="0.421875" stop-color="#F36C0E"/>
<stop offset="0.425781" stop-color="#F26A0F"/>
<stop offset="0.429688" stop-color="#F16811"/>
<stop offset="0.433594" stop-color="#EF6612"/>
<stop offset="0.4375" stop-color="#EE6414"/>
<stop offset="0.441406" stop-color="#ED6216"/>
<stop offset="0.445312" stop-color="#EB6017"/>
<stop offset="0.449219" stop-color="#EA5E19"/>
<stop offset="0.453125" stop-color="#E95C1A"/>
<stop offset="0.457031" stop-color="#E75A1C"/>
<stop offset="0.460938" stop-color="#E6581D"/>
<stop offset="0.464844" stop-color="#E5561F"/>
<stop offset="0.46875" stop-color="#E35421"/>
<stop offset="0.472656" stop-color="#E25222"/>
<stop offset="0.476562" stop-color="#E15024"/>
<stop offset="0.480469" stop-color="#DF4E25"/>
<stop offset="0.484375" stop-color="#DE4D27"/>
<stop offset="0.488281" stop-color="#DD4B28"/>
<stop offset="0.492188" stop-color="#DB492A"/>
<stop offset="0.496094" stop-color="#DA472B"/>
<stop offset="0.5" stop-color="#D9452D"/>
<stop offset="0.503906" stop-color="#D7432F"/>
<stop offset="0.507812" stop-color="#D64130"/>
<stop offset="0.511719" stop-color="#D53F32"/>
<stop offset="0.515625" stop-color="#D33D33"/>
<stop offset="0.519531" stop-color="#D23B35"/>
<stop offset="0.523438" stop-color="#D13936"/>
<stop offset="0.527344" stop-color="#CF3738"/>
<stop offset="0.53125" stop-color="#CE353A"/>
<stop offset="0.535156" stop-color="#CD333B"/>
<stop offset="0.539062" stop-color="#CB313D"/>
<stop offset="0.542969" stop-color="#CA2F3E"/>
<stop offset="0.546875" stop-color="#C92D40"/>
<stop offset="0.550781" stop-color="#C72B41"/>
<stop offset="0.554688" stop-color="#C62943"/>
<stop offset="0.558594" stop-color="#C52745"/>
<stop offset="0.5625" stop-color="#C32546"/>
<stop offset="0.566406" stop-color="#C22348"/>
<stop offset="0.570312" stop-color="#C12149"/>
<stop offset="0.574219" stop-color="#BF204B"/>
<stop offset="0.578125" stop-color="#BE1E4C"/>
<stop offset="0.582031" stop-color="#BD1C4E"/>
<stop offset="0.585938" stop-color="#BB1A4F"/>
<stop offset="0.589844" stop-color="#BA1851"/>
<stop offset="0.59375" stop-color="#B91653"/>
<stop offset="0.597656" stop-color="#B71454"/>
<stop offset="0.601562" stop-color="#B61256"/>
<stop offset="0.605469" stop-color="#B51057"/>
<stop offset="0.609375" stop-color="#B30E59"/>
<stop offset="0.613281" stop-color="#B20C5A"/>
<stop offset="0.617188" stop-color="#B10A5C"/>
<stop offset="0.621094" stop-color="#AF085E"/>
<stop offset="0.625" stop-color="#AE065F"/>
<stop offset="0.628906" stop-color="#AD0461"/>
<stop offset="0.632813" stop-color="#AB0262"/>
<stop offset="0.636719" stop-color="#AA0164"/>
<stop offset="0.640625" stop-color="#A80065"/>
<stop offset="0.644531" stop-color="#A70066"/>
<stop offset="0.648438" stop-color="#A50067"/>
<stop offset="0.652344" stop-color="#A30068"/>
<stop offset="0.65625" stop-color="#A10069"/>
<stop offset="0.660156" stop-color="#9F006A"/>
<stop offset="0.664063" stop-color="#9D006B"/>
<stop offset="0.667969" stop-color="#9C006C"/>
<stop offset="0.671875" stop-color="#9A006D"/>
<stop offset="0.675781" stop-color="#98006E"/>
<stop offset="0.679688" stop-color="#96006F"/>
<stop offset="0.683594" stop-color="#940070"/>
<stop offset="0.6875" stop-color="#920071"/>
<stop offset="0.691406" stop-color="#910072"/>
<stop offset="0.695313" stop-color="#8F0073"/>
<stop offset="0.699219" stop-color="#8D0074"/>
<stop offset="0.703125" stop-color="#8B0075"/>
<stop offset="0.707031" stop-color="#890076"/>
<stop offset="0.710938" stop-color="#870077"/>
<stop offset="0.714844" stop-color="#860078"/>
<stop offset="0.71875" stop-color="#840079"/>
<stop offset="0.722656" stop-color="#82007A"/>
<stop offset="0.726562" stop-color="#80007B"/>
<stop offset="0.730469" stop-color="#7E007C"/>
<stop offset="0.734375" stop-color="#7D007D"/>
<stop offset="0.738281" stop-color="#7B007E"/>
<stop offset="0.742188" stop-color="#79007F"/>
<stop offset="0.746094" stop-color="#770080"/>
<stop offset="0.75" stop-color="#750081"/>
<stop offset="0.753906" stop-color="#730082"/>
<stop offset="0.757812" stop-color="#720083"/>
<stop offset="0.761719" stop-color="#700084"/>
<stop offset="0.765625" stop-color="#6E0085"/>
<stop offset="0.769531" stop-color="#6C0086"/>
<stop offset="0.773438" stop-color="#6A0087"/>
<stop offset="0.777344" stop-color="#680088"/>
<stop offset="0.78125" stop-color="#670089"/>
<stop offset="0.785156" stop-color="#65008A"/>
<stop offset="0.789062" stop-color="#63008B"/>
<stop offset="0.792969" stop-color="#61008C"/>
<stop offset="0.796875" stop-color="#5F008D"/>
<stop offset="0.800781" stop-color="#5D008E"/>
<stop offset="0.804688" stop-color="#5C008F"/>
<stop offset="0.808594" stop-color="#5A0090"/>
<stop offset="0.8125" stop-color="#580091"/>
<stop offset="0.816406" stop-color="#560092"/>
<stop offset="0.820312" stop-color="#540093"/>
<stop offset="0.824219" stop-color="#530094"/>
<stop offset="0.828125" stop-color="#510095"/>
<stop offset="0.832031" stop-color="#4F0096"/>
<stop offset="0.835937" stop-color="#4D0097"/>
<stop offset="0.839844" stop-color="#4B0098"/>
<stop offset="0.84375" stop-color="#490099"/>
<stop offset="0.847656" stop-color="#48009A"/>
<stop offset="0.851562" stop-color="#46009B"/>
<stop offset="0.859375" stop-color="#46009B"/>
<stop offset="0.875" stop-color="#46009B"/>
<stop offset="1" stop-color="#46009B"/>
</linearGradient>
</defs>
</svg>
