<?xml version="1.0" encoding="utf-8"?>
<svg xmlns="http://www.w3.org/2000/svg" fill="none" height="50" viewBox="0 0 91 50" width="91">
<path d="M8.18135 45.4698C8.18135 43.7482 6.86606 42.9658 4.65922 42.9658H1.80587V48.0403C2.36277 48.1297 3.05383 48.1967 4.07954 48.1967C6.97743 48.1967 8.18135 47.4143 8.18135 45.4698ZM1.80587 36.7287V41.3341H4.45823C6.70962 41.3341 7.55712 40.4177 7.55712 38.8748C7.55712 37.4217 6.39775 36.617 4.21319 36.617C3.38848 36.617 2.60831 36.6394 1.80587 36.7287ZM9.96444 45.3805C9.96444 48.1967 7.93581 49.8066 4.19092 49.8066C2.22911 49.8066 1.00343 49.6949 0 49.5157V35.432C1.00343 35.231 2.31822 35.0523 4.10181 35.0523C7.62394 35.0523 9.29565 36.3713 9.29565 38.8748C9.29565 40.373 8.60459 41.3564 7.51256 41.9372C9.05062 42.4515 9.96444 43.5248 9.96444 45.3805ZM15.8053 48.2419C16.875 48.2419 17.8111 48.0626 18.5022 47.8169V45.2459C17.6552 44.8438 16.6523 44.6646 15.582 44.6646C14.1331 44.6646 13.1079 45.1342 13.1079 46.3415C13.1079 47.4813 13.9994 48.2419 15.8053 48.2419ZM20.2635 42.8095V48.8227C19.2829 49.3593 17.4324 49.8513 15.783 49.8513C12.5727 49.8513 11.2575 48.3759 11.2575 46.4309C11.2575 44.2848 13.1302 43.0775 15.582 43.0775C16.7414 43.0775 17.7443 43.3009 18.5022 43.6142V42.8095C18.5022 41.2224 17.477 40.373 15.6266 40.373C14.3563 40.373 13.2861 40.8421 12.6396 41.3341C12.1272 41.0883 11.8149 40.6187 11.7258 40.1268C12.3945 39.4561 13.9326 38.6961 15.7162 38.6961C18.2349 38.6961 20.2635 39.8587 20.2635 42.8095ZM32.0556 42.9882V49.538C31.766 49.605 31.4319 49.6279 31.1418 49.6279C30.8522 49.6279 30.5626 49.605 30.2502 49.538V43.6142C30.2502 41.3117 29.2023 40.373 27.1741 40.373C25.9925 40.373 24.9445 40.7528 24.3431 41.1107V49.538C24.053 49.605 23.7188 49.6279 23.4292 49.6279C23.1391 49.6279 22.8496 49.605 22.5372 49.538V40.3055C23.5629 39.4561 25.3683 38.6961 27.3523 38.6961C30.6289 38.6961 32.0556 40.7081 32.0556 42.9882ZM33.7946 44.2848C33.7946 40.9761 36.1574 38.6961 39.234 38.6961C40.7944 38.6961 42.0428 39.2997 42.7116 39.9257C42.5552 40.4623 42.221 40.9315 41.6859 41.2442C41.0617 40.7528 40.3038 40.3278 39.234 40.3278C36.7371 40.3278 35.6228 42.2505 35.6228 44.2848C35.6228 46.3192 36.7371 48.1972 39.234 48.1972C40.7047 48.1972 41.4404 47.526 41.8418 47.2133C42.3324 47.4818 42.6888 47.9063 42.867 48.4653C42.1987 49.1583 40.8166 49.8513 39.234 49.8513C36.046 49.8513 33.7946 47.7722 33.7946 44.2848ZM52.2968 44.2625C52.2968 41.9824 50.9147 40.3501 48.7079 40.3501C46.501 40.3501 45.1189 41.9824 45.1189 44.2625C45.1189 46.5426 46.501 48.152 48.7079 48.152C50.9147 48.152 52.2968 46.5426 52.2968 44.2625ZM43.2913 44.2625C43.2913 41.1107 45.6318 38.6737 48.7747 38.6737C51.9176 38.6737 54.125 41.1107 54.125 44.2625C54.125 47.4143 51.784 49.8289 48.6411 49.8289C45.4976 49.8289 43.2913 47.4143 43.2913 44.2625ZM55.0449 47.7205C55.1887 46.2202 55.9653 44.9504 57.03 44.2869C58.2384 45.2677 60.1663 46.0471 62.3241 46.0471C64.3957 46.0471 65.2012 45.3835 65.2012 44.3732C65.2012 43.4212 64.741 42.8729 61.4897 42.0362C58.3822 41.2858 55.6489 40.074 55.62 36.352C55.62 32.8032 58.4399 30.5236 62.6982 30.5236C65.8918 30.5236 68.0211 31.5623 69.1147 32.428C69.0281 33.7551 68.3087 35.2269 67.1291 35.9194C66.0644 35.169 64.4534 34.4765 62.4106 34.4765C60.7131 34.4765 59.7922 35.1112 59.7922 35.9768C59.7922 36.9003 60.1952 37.3039 63.5042 38.1122C66.9564 38.9778 69.3157 40.4491 69.3734 43.7675C69.46 47.7778 66.6689 50 62.238 50C58.526 50 56.2245 48.7592 55.0449 47.7205ZM80.8247 42.6998C80.8247 40.4491 79.6735 38.9778 77.6595 38.9778C75.6456 38.9778 74.466 40.4491 74.466 42.6998C74.466 44.9215 75.6456 46.4223 77.6595 46.4223C79.6735 46.4223 80.8247 44.9215 80.8247 42.6998ZM70.1789 42.6998C70.1789 38.2853 73.3436 35.3711 77.6884 35.3711C82.0332 35.3711 85.1407 38.2274 85.1407 42.6998C85.1407 47.0858 81.9755 50 77.6307 50C73.2864 50 70.1789 47.23 70.1789 42.6998ZM86.4925 49.538V30.6388C87.1541 30.5236 87.8736 30.4657 88.593 30.4657C89.3124 30.4657 90.0601 30.5236 90.8084 30.6388V49.538C90.1467 49.6538 89.3985 49.7112 88.6795 49.7112C87.9601 49.7112 87.2407 49.6538 86.4925 49.538Z" fill="#46009B"/>
<mask height="36" id="mask0_20487_32" maskUnits="userSpaceOnUse" style="mask-type:luminance" width="40" x="39" y="0">
<path d="M39.0264 0H78.0376V35.4823H39.0264V0Z" fill="white"/>
</mask>
<g mask="url(#mask0_20487_32)">
<mask height="36" id="mask1_20487_32" maskUnits="userSpaceOnUse" style="mask-type:luminance" width="39" x="39" y="0">
<path d="M39.033 19.6349C39.033 25.9964 42.067 31.6471 46.7637 35.2112C47.1703 35.5219 47.833 35.3797 48.0183 34.8324C51.0579 26.4848 60.2629 22.213 68.5526 25.2627C72.9061 26.8803 78.1926 23.7193 77.9106 18.1722C77.1456 8.09328 68.7445 0.114746 58.4981 0.114746C47.7474 0.114746 39.033 8.85433 39.033 19.6349Z" fill="white"/>
</mask>
<g mask="url(#mask1_20487_32)">
<path d="M48.8228 -16.8896L23.7441 26.6702L68.4024 52.5264L93.481 8.96659L48.8228 -16.8896Z" fill="url(#paint0_linear_20487_32)"/>
</g>
</g>
<defs>
<linearGradient gradientUnits="userSpaceOnUse" id="paint0_linear_20487_32" x1="35.5042" x2="80.2253" y1="6.24384" y2="31.9908">
<stop stop-color="#FFDC00"/>
<stop offset="0.125" stop-color="#FFDC00"/>
<stop offset="0.140625" stop-color="#FFDC00"/>
<stop offset="0.144531" stop-color="#FFDA00"/>
<stop offset="0.148438" stop-color="#FFD800"/>
<stop offset="0.152344" stop-color="#FFD700"/>
<stop offset="0.15625" stop-color="#FFD500"/>
<stop offset="0.160156" stop-color="#FFD400"/>
<stop offset="0.164062" stop-color="#FFD200"/>
<stop offset="0.167969" stop-color="#FFD100"/>
<stop offset="0.171875" stop-color="#FFCF00"/>
<stop offset="0.175781" stop-color="#FFCE00"/>
<stop offset="0.179688" stop-color="#FFCC00"/>
<stop offset="0.183594" stop-color="#FFCB00"/>
<stop offset="0.1875" stop-color="#FFC900"/>
<stop offset="0.191406" stop-color="#FFC800"/>
<stop offset="0.195312" stop-color="#FFC600"/>
<stop offset="0.199219" stop-color="#FFC500"/>
<stop offset="0.203125" stop-color="#FFC300"/>
<stop offset="0.207031" stop-color="#FFC200"/>
<stop offset="0.210938" stop-color="#FFC000"/>
<stop offset="0.214844" stop-color="#FFBF00"/>
<stop offset="0.21875" stop-color="#FFBD00"/>
<stop offset="0.222656" stop-color="#FFBC00"/>
<stop offset="0.226562" stop-color="#FFBA00"/>
<stop offset="0.230469" stop-color="#FFB900"/>
<stop offset="0.234375" stop-color="#FFB700"/>
<stop offset="0.238281" stop-color="#FFB600"/>
<stop offset="0.242188" stop-color="#FFB400"/>
<stop offset="0.246094" stop-color="#FFB300"/>
<stop offset="0.25" stop-color="#FFB100"/>
<stop offset="0.253906" stop-color="#FFB000"/>
<stop offset="0.257812" stop-color="#FFAE00"/>
<stop offset="0.261719" stop-color="#FFAD00"/>
<stop offset="0.265625" stop-color="#FFAB00"/>
<stop offset="0.269531" stop-color="#FFAA00"/>
<stop offset="0.273438" stop-color="#FFA800"/>
<stop offset="0.277344" stop-color="#FFA700"/>
<stop offset="0.28125" stop-color="#FFA500"/>
<stop offset="0.285156" stop-color="#FFA400"/>
<stop offset="0.289062" stop-color="#FFA300"/>
<stop offset="0.292969" stop-color="#FFA100"/>
<stop offset="0.296875" stop-color="#FFA000"/>
<stop offset="0.300781" stop-color="#FF9E00"/>
<stop offset="0.304688" stop-color="#FF9D00"/>
<stop offset="0.308594" stop-color="#FF9B00"/>
<stop offset="0.3125" stop-color="#FF9A00"/>
<stop offset="0.316406" stop-color="#FF9800"/>
<stop offset="0.320312" stop-color="#FF9700"/>
<stop offset="0.324219" stop-color="#FF9500"/>
<stop offset="0.328125" stop-color="#FF9400"/>
<stop offset="0.332031" stop-color="#FF9200"/>
<stop offset="0.335938" stop-color="#FF9100"/>
<stop offset="0.339844" stop-color="#FF8F00"/>
<stop offset="0.34375" stop-color="#FF8E00"/>
<stop offset="0.347656" stop-color="#FF8C00"/>
<stop offset="0.351562" stop-color="#FF8B00"/>
<stop offset="0.355469" stop-color="#FF8900"/>
<stop offset="0.359375" stop-color="#FF8800"/>
<stop offset="0.363281" stop-color="#FF8600"/>
<stop offset="0.367188" stop-color="#FF8500"/>
<stop offset="0.371094" stop-color="#FF8300"/>
<stop offset="0.375" stop-color="#FF8200"/>
<stop offset="0.378906" stop-color="#FF8000"/>
<stop offset="0.382813" stop-color="#FF7F00"/>
<stop offset="0.386719" stop-color="#FE7D01"/>
<stop offset="0.390625" stop-color="#FE7B01"/>
<stop offset="0.394531" stop-color="#FD7A03"/>
<stop offset="0.398438" stop-color="#FB7804"/>
<stop offset="0.402344" stop-color="#FA7606"/>
<stop offset="0.40625" stop-color="#F97407"/>
<stop offset="0.410156" stop-color="#F77209"/>
<stop offset="0.414062" stop-color="#F6700B"/>
<stop offset="0.417969" stop-color="#F56E0C"/>
<stop offset="0.421875" stop-color="#F36C0E"/>
<stop offset="0.425781" stop-color="#F26A0F"/>
<stop offset="0.429688" stop-color="#F16811"/>
<stop offset="0.433594" stop-color="#EF6612"/>
<stop offset="0.4375" stop-color="#EE6414"/>
<stop offset="0.441406" stop-color="#ED6216"/>
<stop offset="0.445312" stop-color="#EB6017"/>
<stop offset="0.449219" stop-color="#EA5E19"/>
<stop offset="0.453125" stop-color="#E95C1A"/>
<stop offset="0.457031" stop-color="#E75A1C"/>
<stop offset="0.460938" stop-color="#E6581D"/>
<stop offset="0.464844" stop-color="#E5561F"/>
<stop offset="0.46875" stop-color="#E35421"/>
<stop offset="0.472656" stop-color="#E25222"/>
<stop offset="0.476562" stop-color="#E15024"/>
<stop offset="0.480469" stop-color="#DF4E25"/>
<stop offset="0.484375" stop-color="#DE4D27"/>
<stop offset="0.488281" stop-color="#DD4B28"/>
<stop offset="0.492188" stop-color="#DB492A"/>
<stop offset="0.496094" stop-color="#DA472B"/>
<stop offset="0.5" stop-color="#D9452D"/>
<stop offset="0.503906" stop-color="#D7432F"/>
<stop offset="0.507812" stop-color="#D64130"/>
<stop offset="0.511719" stop-color="#D53F32"/>
<stop offset="0.515625" stop-color="#D33D33"/>
<stop offset="0.519531" stop-color="#D23B35"/>
<stop offset="0.523438" stop-color="#D13936"/>
<stop offset="0.527344" stop-color="#CF3738"/>
<stop offset="0.53125" stop-color="#CE353A"/>
<stop offset="0.535156" stop-color="#CD333B"/>
<stop offset="0.539062" stop-color="#CB313D"/>
<stop offset="0.542969" stop-color="#CA2F3E"/>
<stop offset="0.546875" stop-color="#C92D40"/>
<stop offset="0.550781" stop-color="#C72B41"/>
<stop offset="0.554688" stop-color="#C62943"/>
<stop offset="0.558594" stop-color="#C52745"/>
<stop offset="0.5625" stop-color="#C32546"/>
<stop offset="0.566406" stop-color="#C22348"/>
<stop offset="0.570312" stop-color="#C12149"/>
<stop offset="0.574219" stop-color="#BF204B"/>
<stop offset="0.578125" stop-color="#BE1E4C"/>
<stop offset="0.582031" stop-color="#BD1C4E"/>
<stop offset="0.585938" stop-color="#BB1A4F"/>
<stop offset="0.589844" stop-color="#BA1851"/>
<stop offset="0.59375" stop-color="#B91653"/>
<stop offset="0.597656" stop-color="#B71454"/>
<stop offset="0.601562" stop-color="#B61256"/>
<stop offset="0.605469" stop-color="#B51057"/>
<stop offset="0.609375" stop-color="#B30E59"/>
<stop offset="0.613281" stop-color="#B20C5A"/>
<stop offset="0.617188" stop-color="#B10A5C"/>
<stop offset="0.621094" stop-color="#AF085E"/>
<stop offset="0.625" stop-color="#AE065F"/>
<stop offset="0.628906" stop-color="#AD0461"/>
<stop offset="0.632813" stop-color="#AB0262"/>
<stop offset="0.636719" stop-color="#AA0164"/>
<stop offset="0.640625" stop-color="#A80065"/>
<stop offset="0.644531" stop-color="#A70066"/>
<stop offset="0.648438" stop-color="#A50067"/>
<stop offset="0.652344" stop-color="#A30068"/>
<stop offset="0.65625" stop-color="#A10069"/>
<stop offset="0.660156" stop-color="#9F006A"/>
<stop offset="0.664063" stop-color="#9D006B"/>
<stop offset="0.667969" stop-color="#9C006C"/>
<stop offset="0.671875" stop-color="#9A006D"/>
<stop offset="0.675781" stop-color="#98006E"/>
<stop offset="0.679688" stop-color="#96006F"/>
<stop offset="0.683594" stop-color="#940070"/>
<stop offset="0.6875" stop-color="#920071"/>
<stop offset="0.691406" stop-color="#910072"/>
<stop offset="0.695313" stop-color="#8F0073"/>
<stop offset="0.699219" stop-color="#8D0074"/>
<stop offset="0.703125" stop-color="#8B0075"/>
<stop offset="0.707031" stop-color="#890076"/>
<stop offset="0.710938" stop-color="#870077"/>
<stop offset="0.714844" stop-color="#860078"/>
<stop offset="0.71875" stop-color="#840079"/>
<stop offset="0.722656" stop-color="#82007A"/>
<stop offset="0.726562" stop-color="#80007B"/>
<stop offset="0.730469" stop-color="#7E007C"/>
<stop offset="0.734375" stop-color="#7D007D"/>
<stop offset="0.738281" stop-color="#7B007E"/>
<stop offset="0.742188" stop-color="#79007F"/>
<stop offset="0.746094" stop-color="#770080"/>
<stop offset="0.75" stop-color="#750081"/>
<stop offset="0.753906" stop-color="#730082"/>
<stop offset="0.757812" stop-color="#720083"/>
<stop offset="0.761719" stop-color="#700084"/>
<stop offset="0.765625" stop-color="#6E0085"/>
<stop offset="0.769531" stop-color="#6C0086"/>
<stop offset="0.773438" stop-color="#6A0087"/>
<stop offset="0.777344" stop-color="#680088"/>
<stop offset="0.78125" stop-color="#670089"/>
<stop offset="0.785156" stop-color="#65008A"/>
<stop offset="0.789062" stop-color="#63008B"/>
<stop offset="0.792969" stop-color="#61008C"/>
<stop offset="0.796875" stop-color="#5F008D"/>
<stop offset="0.800781" stop-color="#5D008E"/>
<stop offset="0.804688" stop-color="#5C008F"/>
<stop offset="0.808594" stop-color="#5A0090"/>
<stop offset="0.8125" stop-color="#580091"/>
<stop offset="0.816406" stop-color="#560092"/>
<stop offset="0.820312" stop-color="#540093"/>
<stop offset="0.824219" stop-color="#530094"/>
<stop offset="0.828125" stop-color="#510095"/>
<stop offset="0.832031" stop-color="#4F0096"/>
<stop offset="0.835937" stop-color="#4D0097"/>
<stop offset="0.839844" stop-color="#4B0098"/>
<stop offset="0.84375" stop-color="#490099"/>
<stop offset="0.847656" stop-color="#48009A"/>
<stop offset="0.851562" stop-color="#46009B"/>
<stop offset="0.859375" stop-color="#46009B"/>
<stop offset="0.875" stop-color="#46009B"/>
<stop offset="1" stop-color="#46009B"/>
</linearGradient>
</defs>
</svg>